<mxfile host="app.diagrams.net" modified="2024-01-19T06:17:07.913Z" agent="Mozilla/5.0 (X11; Linux x86_64) AppleWebKit/537.36 (KHTML, like Gecko) Chrome/120.0.0.0 Safari/537.36" etag="D_U9jwJXSk3ZDIirjfJy" version="22.1.21" type="github">
  <diagram name="Page-1" id="13e1069c-82ec-6db2-03f1-153e76fe0fe0">
    <mxGraphModel dx="1068" dy="878" grid="0" gridSize="10" guides="1" tooltips="1" connect="1" arrows="1" fold="1" page="1" pageScale="1" pageWidth="1100" pageHeight="850" background="none" math="0" shadow="0">
      <root>
        <mxCell id="0" />
        <mxCell id="1" parent="0" />
        <mxCell id="7baba1c4bc27f4b0-3" value="UtagFileParseController" style="shape=umlLifeline;perimeter=lifelinePerimeter;whiteSpace=wrap;html=1;container=1;collapsible=0;recursiveResize=0;outlineConnect=0;rounded=1;shadow=0;comic=0;labelBackgroundColor=none;strokeWidth=1;fontFamily=Verdana;fontSize=12;align=center;" parent="1" vertex="1">
          <mxGeometry x="442" y="112.5" width="147" height="480" as="geometry" />
        </mxCell>
        <mxCell id="7baba1c4bc27f4b0-13" value="" style="html=1;points=[];perimeter=orthogonalPerimeter;rounded=0;shadow=0;comic=0;labelBackgroundColor=none;strokeWidth=1;fontFamily=Verdana;fontSize=12;align=center;" parent="7baba1c4bc27f4b0-3" vertex="1">
          <mxGeometry x="68.5" y="244.5" width="10" height="223.5" as="geometry" />
        </mxCell>
        <mxCell id="7baba1c4bc27f4b0-4" value="UtagFileParseServiceImpl" style="shape=umlLifeline;perimeter=lifelinePerimeter;whiteSpace=wrap;html=1;container=1;collapsible=0;recursiveResize=0;outlineConnect=0;rounded=1;shadow=0;comic=0;labelBackgroundColor=none;strokeWidth=1;fontFamily=Verdana;fontSize=12;align=center;" parent="1" vertex="1">
          <mxGeometry x="624" y="112.5" width="162" height="480" as="geometry" />
        </mxCell>
        <mxCell id="K8AdZDfyRurilhgOISgo-18" value="解析文件" style="html=1;verticalAlign=bottom;endArrow=block;labelBackgroundColor=none;fontFamily=Verdana;fontSize=12;edgeStyle=elbowEdgeStyle;elbow=vertical;" edge="1" parent="7baba1c4bc27f4b0-4">
          <mxGeometry relative="1" as="geometry">
            <mxPoint x="-103.5" y="261.6933333333333" as="sourcePoint" />
            <mxPoint x="75" y="262.5" as="targetPoint" />
            <Array as="points">
              <mxPoint x="-42.5" y="261.69" />
            </Array>
          </mxGeometry>
        </mxCell>
        <mxCell id="hfw7Yt3CG0fDcvU8aNfm-4" value="return" style="html=1;verticalAlign=bottom;endArrow=open;dashed=1;endSize=8;labelBackgroundColor=none;fontFamily=Verdana;fontSize=12;exitX=-0.006;exitY=0.797;exitDx=0;exitDy=0;exitPerimeter=0;" parent="7baba1c4bc27f4b0-4" edge="1">
          <mxGeometry relative="1" as="geometry">
            <mxPoint x="86" y="303.5" as="targetPoint" />
            <mxPoint x="224.00000000000006" y="303.20000000000016" as="sourcePoint" />
          </mxGeometry>
        </mxCell>
        <mxCell id="K8AdZDfyRurilhgOISgo-20" value="return" style="html=1;verticalAlign=bottom;endArrow=open;dashed=1;endSize=8;labelBackgroundColor=none;fontFamily=Verdana;fontSize=12;exitX=-0.006;exitY=0.797;exitDx=0;exitDy=0;exitPerimeter=0;" edge="1" parent="7baba1c4bc27f4b0-4">
          <mxGeometry relative="1" as="geometry">
            <mxPoint x="-103" y="309.5" as="targetPoint" />
            <mxPoint x="75" y="309.50000000000017" as="sourcePoint" />
          </mxGeometry>
        </mxCell>
        <mxCell id="K8AdZDfyRurilhgOISgo-26" value="" style="html=1;points=[];perimeter=orthogonalPerimeter;rounded=0;shadow=0;comic=0;labelBackgroundColor=none;strokeWidth=1;fontFamily=Verdana;fontSize=12;align=center;" vertex="1" parent="7baba1c4bc27f4b0-4">
          <mxGeometry x="76" y="374" width="10" height="62" as="geometry" />
        </mxCell>
        <mxCell id="K8AdZDfyRurilhgOISgo-27" value="存储文件信息" style="html=1;verticalAlign=bottom;endArrow=block;labelBackgroundColor=none;fontFamily=Verdana;fontSize=12;edgeStyle=elbowEdgeStyle;elbow=vertical;" edge="1" parent="7baba1c4bc27f4b0-4">
          <mxGeometry relative="1" as="geometry">
            <mxPoint x="-102.5" y="382.50333333333333" as="sourcePoint" />
            <mxPoint x="76" y="383.31" as="targetPoint" />
            <Array as="points">
              <mxPoint x="-41.5" y="382.5" />
            </Array>
          </mxGeometry>
        </mxCell>
        <mxCell id="K8AdZDfyRurilhgOISgo-30" value="return" style="html=1;verticalAlign=bottom;endArrow=open;dashed=1;endSize=8;labelBackgroundColor=none;fontFamily=Verdana;fontSize=12;" edge="1" parent="7baba1c4bc27f4b0-4">
          <mxGeometry relative="1" as="geometry">
            <mxPoint x="224.33000000000004" y="461.4999999999999" as="targetPoint" />
            <mxPoint x="-103" y="461.5" as="sourcePoint" />
            <Array as="points">
              <mxPoint x="167.83000000000004" y="461.5" />
            </Array>
          </mxGeometry>
        </mxCell>
        <mxCell id="7baba1c4bc27f4b0-5" value="UtagParseFileRepository" style="shape=umlLifeline;perimeter=lifelinePerimeter;whiteSpace=wrap;html=1;container=1;collapsible=0;recursiveResize=0;outlineConnect=0;rounded=1;shadow=0;comic=0;labelBackgroundColor=none;strokeWidth=1;fontFamily=Verdana;fontSize=12;align=center;" parent="1" vertex="1">
          <mxGeometry x="917" y="112.5" width="153" height="480" as="geometry" />
        </mxCell>
        <mxCell id="7baba1c4bc27f4b0-19" value="" style="html=1;points=[];perimeter=orthogonalPerimeter;rounded=0;shadow=0;comic=0;labelBackgroundColor=none;strokeWidth=1;fontFamily=Verdana;fontSize=12;align=center;" parent="7baba1c4bc27f4b0-5" vertex="1">
          <mxGeometry x="71.5" y="389.5" width="10" height="40" as="geometry" />
        </mxCell>
        <mxCell id="K8AdZDfyRurilhgOISgo-22" value="存储解析文件的信息" style="html=1;verticalAlign=bottom;endArrow=block;labelBackgroundColor=none;fontFamily=Verdana;fontSize=12;edgeStyle=elbowEdgeStyle;elbow=vertical;" edge="1" parent="7baba1c4bc27f4b0-5">
          <mxGeometry relative="1" as="geometry">
            <mxPoint x="-206.5" y="397.25333333333333" as="sourcePoint" />
            <mxPoint x="71.5" y="397.25" as="targetPoint" />
            <Array as="points">
              <mxPoint x="-145.5" y="397.25" />
            </Array>
          </mxGeometry>
        </mxCell>
        <mxCell id="7baba1c4bc27f4b0-8" value="用户" style="shape=umlLifeline;perimeter=lifelinePerimeter;whiteSpace=wrap;html=1;container=1;collapsible=0;recursiveResize=0;outlineConnect=0;rounded=1;shadow=0;comic=0;labelBackgroundColor=none;strokeWidth=1;fontFamily=Verdana;fontSize=12;align=center;" parent="1" vertex="1">
          <mxGeometry x="10" y="112.5" width="100" height="480" as="geometry" />
        </mxCell>
        <mxCell id="7baba1c4bc27f4b0-9" value="" style="html=1;points=[];perimeter=orthogonalPerimeter;rounded=0;shadow=0;comic=0;labelBackgroundColor=none;strokeWidth=1;fontFamily=Verdana;fontSize=12;align=center;" parent="7baba1c4bc27f4b0-8" vertex="1">
          <mxGeometry x="45" y="100" width="10" height="360" as="geometry" />
        </mxCell>
        <mxCell id="7baba1c4bc27f4b0-16" value="" style="html=1;points=[];perimeter=orthogonalPerimeter;rounded=0;shadow=0;comic=0;labelBackgroundColor=none;strokeWidth=1;fontFamily=Verdana;fontSize=12;align=center;" parent="1" vertex="1">
          <mxGeometry x="700" y="367" width="10" height="67" as="geometry" />
        </mxCell>
        <mxCell id="hfw7Yt3CG0fDcvU8aNfm-1" value="" style="shape=umlActor;verticalLabelPosition=bottom;verticalAlign=top;html=1;" parent="1" vertex="1">
          <mxGeometry x="45" y="50" width="30" height="60" as="geometry" />
        </mxCell>
        <mxCell id="7baba1c4bc27f4b0-11" value="上传文件" style="html=1;verticalAlign=bottom;endArrow=block;labelBackgroundColor=none;fontFamily=Verdana;fontSize=12;edgeStyle=elbowEdgeStyle;elbow=vertical;" parent="1" edge="1" target="K8AdZDfyRurilhgOISgo-2">
          <mxGeometry relative="1" as="geometry">
            <mxPoint x="65" y="228.00333333333333" as="sourcePoint" />
            <mxPoint x="201" y="228" as="targetPoint" />
            <Array as="points">
              <mxPoint x="126" y="228" />
            </Array>
          </mxGeometry>
        </mxCell>
        <mxCell id="7baba1c4bc27f4b0-17" value="身份校验" style="html=1;verticalAlign=bottom;endArrow=block;labelBackgroundColor=none;fontFamily=Verdana;fontSize=12;edgeStyle=elbowEdgeStyle;elbow=vertical;exitX=0.85;exitY=0.089;exitDx=0;exitDy=0;exitPerimeter=0;entryX=-0.019;entryY=0.268;entryDx=0;entryDy=0;entryPerimeter=0;" parent="1" target="K8AdZDfyRurilhgOISgo-11" edge="1" source="K8AdZDfyRurilhgOISgo-2">
          <mxGeometry relative="1" as="geometry">
            <mxPoint y="229" as="sourcePoint" />
            <Array as="points">
              <mxPoint x="232" y="230" />
            </Array>
            <mxPoint x="883.79" y="307.59000000000015" as="targetPoint" />
          </mxGeometry>
        </mxCell>
        <mxCell id="K8AdZDfyRurilhgOISgo-1" value="UtagFileController" style="shape=umlLifeline;perimeter=lifelinePerimeter;whiteSpace=wrap;html=1;container=1;collapsible=0;recursiveResize=0;outlineConnect=0;rounded=1;shadow=0;comic=0;labelBackgroundColor=none;strokeWidth=1;fontFamily=Verdana;fontSize=12;align=center;" vertex="1" parent="1">
          <mxGeometry x="132" y="112.5" width="121" height="480" as="geometry" />
        </mxCell>
        <mxCell id="K8AdZDfyRurilhgOISgo-2" value="" style="html=1;points=[];perimeter=orthogonalPerimeter;rounded=0;shadow=0;comic=0;labelBackgroundColor=none;strokeWidth=1;fontFamily=Verdana;fontSize=12;align=center;" vertex="1" parent="K8AdZDfyRurilhgOISgo-1">
          <mxGeometry x="55.5" y="106.5" width="10" height="116.5" as="geometry" />
        </mxCell>
        <mxCell id="K8AdZDfyRurilhgOISgo-15" value="校验文件格式" style="html=1;verticalAlign=bottom;endArrow=block;labelBackgroundColor=none;fontFamily=Verdana;fontSize=12;elbow=vertical;edgeStyle=orthogonalEdgeStyle;curved=1;exitX=0.931;exitY=0.346;exitPerimeter=0;exitDx=0;exitDy=0;" edge="1" parent="K8AdZDfyRurilhgOISgo-1">
          <mxGeometry x="0.1645" y="2" relative="1" as="geometry">
            <mxPoint x="65.49999999999999" y="155.50000000000006" as="sourcePoint" />
            <mxPoint x="66.19000000000004" y="205.66000000000003" as="targetPoint" />
            <Array as="points">
              <mxPoint x="65.19000000000004" y="156.66000000000003" />
              <mxPoint x="121.19000000000004" y="156.66000000000003" />
              <mxPoint x="121.19000000000004" y="205.66000000000003" />
            </Array>
            <mxPoint as="offset" />
          </mxGeometry>
        </mxCell>
        <mxCell id="K8AdZDfyRurilhgOISgo-16" value="返回待解析文件信息" style="html=1;verticalAlign=bottom;endArrow=open;dashed=1;endSize=8;labelBackgroundColor=none;fontFamily=Verdana;fontSize=12;entryX=1;entryY=0.932;entryDx=0;entryDy=0;entryPerimeter=0;" edge="1" parent="K8AdZDfyRurilhgOISgo-1">
          <mxGeometry relative="1" as="geometry">
            <mxPoint x="-66" y="217.5" as="targetPoint" />
            <mxPoint x="55" y="217.5" as="sourcePoint" />
          </mxGeometry>
        </mxCell>
        <mxCell id="K8AdZDfyRurilhgOISgo-17" value="解析文件" style="html=1;verticalAlign=bottom;endArrow=block;labelBackgroundColor=none;fontFamily=Verdana;fontSize=12;edgeStyle=elbowEdgeStyle;elbow=vertical;" edge="1" parent="K8AdZDfyRurilhgOISgo-1">
          <mxGeometry relative="1" as="geometry">
            <mxPoint x="-67.5" y="250.50333333333333" as="sourcePoint" />
            <mxPoint x="377" y="250.5" as="targetPoint" />
            <Array as="points">
              <mxPoint x="-6.5" y="250.5" />
            </Array>
          </mxGeometry>
        </mxCell>
        <mxCell id="K8AdZDfyRurilhgOISgo-4" value="OCR模型" style="shape=umlLifeline;perimeter=lifelinePerimeter;whiteSpace=wrap;html=1;container=1;collapsible=0;recursiveResize=0;outlineConnect=0;rounded=1;shadow=0;comic=0;labelBackgroundColor=none;strokeWidth=1;fontFamily=Verdana;fontSize=12;align=center;" vertex="1" parent="1">
          <mxGeometry x="812" y="112.5" width="82" height="480" as="geometry" />
        </mxCell>
        <mxCell id="K8AdZDfyRurilhgOISgo-5" value="" style="html=1;points=[];perimeter=orthogonalPerimeter;rounded=0;shadow=0;comic=0;labelBackgroundColor=none;strokeWidth=1;fontFamily=Verdana;fontSize=12;align=center;" vertex="1" parent="K8AdZDfyRurilhgOISgo-4">
          <mxGeometry x="36" y="257.5" width="10" height="62.5" as="geometry" />
        </mxCell>
        <mxCell id="K8AdZDfyRurilhgOISgo-19" value="解析文件" style="html=1;verticalAlign=bottom;endArrow=block;labelBackgroundColor=none;fontFamily=Verdana;fontSize=12;edgeStyle=elbowEdgeStyle;elbow=vertical;" edge="1" parent="K8AdZDfyRurilhgOISgo-4" target="K8AdZDfyRurilhgOISgo-5">
          <mxGeometry relative="1" as="geometry">
            <mxPoint x="-102" y="270.50333333333333" as="sourcePoint" />
            <mxPoint x="77.5" y="270.81" as="targetPoint" />
            <Array as="points">
              <mxPoint x="-41" y="270.5" />
            </Array>
          </mxGeometry>
        </mxCell>
        <mxCell id="K8AdZDfyRurilhgOISgo-24" value="" style="html=1;points=[];perimeter=orthogonalPerimeter;rounded=0;shadow=0;comic=0;labelBackgroundColor=none;strokeWidth=1;fontFamily=Verdana;fontSize=12;align=center;" vertex="1" parent="K8AdZDfyRurilhgOISgo-4">
          <mxGeometry x="36" y="346.5" width="10" height="26.5" as="geometry" />
        </mxCell>
        <mxCell id="K8AdZDfyRurilhgOISgo-29" value="" style="html=1;points=[];perimeter=orthogonalPerimeter;rounded=0;shadow=0;comic=0;labelBackgroundColor=none;strokeWidth=1;fontFamily=Verdana;fontSize=12;align=center;" vertex="1" parent="K8AdZDfyRurilhgOISgo-4">
          <mxGeometry x="36" y="449.5" width="10" height="26.5" as="geometry" />
        </mxCell>
        <mxCell id="K8AdZDfyRurilhgOISgo-10" value="SecurityUtils" style="shape=umlLifeline;perimeter=lifelinePerimeter;whiteSpace=wrap;html=1;container=1;collapsible=0;recursiveResize=0;outlineConnect=0;rounded=1;shadow=0;comic=0;labelBackgroundColor=none;strokeWidth=1;fontFamily=Verdana;fontSize=12;align=center;" vertex="1" parent="1">
          <mxGeometry x="291" y="112.5" width="100" height="480" as="geometry" />
        </mxCell>
        <mxCell id="K8AdZDfyRurilhgOISgo-11" value="" style="html=1;points=[];perimeter=orthogonalPerimeter;rounded=0;shadow=0;comic=0;labelBackgroundColor=none;strokeWidth=1;fontFamily=Verdana;fontSize=12;align=center;" vertex="1" parent="K8AdZDfyRurilhgOISgo-10">
          <mxGeometry x="45" y="106.5" width="10" height="39" as="geometry" />
        </mxCell>
        <mxCell id="-S0VGybhTt1iLLzmsYXu-5" value="return" style="html=1;verticalAlign=bottom;endArrow=open;dashed=1;endSize=8;labelBackgroundColor=none;fontFamily=Verdana;fontSize=12;" parent="K8AdZDfyRurilhgOISgo-10" edge="1">
          <mxGeometry relative="1" as="geometry">
            <mxPoint x="-93.5" y="137.5" as="targetPoint" />
            <mxPoint x="48.5" y="138" as="sourcePoint" />
          </mxGeometry>
        </mxCell>
        <mxCell id="K8AdZDfyRurilhgOISgo-21" value="return" style="html=1;verticalAlign=bottom;endArrow=open;dashed=1;endSize=8;labelBackgroundColor=none;fontFamily=Verdana;fontSize=12;exitX=-0.006;exitY=0.797;exitDx=0;exitDy=0;exitPerimeter=0;" edge="1" parent="K8AdZDfyRurilhgOISgo-10">
          <mxGeometry relative="1" as="geometry">
            <mxPoint x="-228" y="386.5" as="targetPoint" />
            <mxPoint x="217" y="386.50000000000017" as="sourcePoint" />
          </mxGeometry>
        </mxCell>
        <mxCell id="K8AdZDfyRurilhgOISgo-25" value="解析回调" style="html=1;verticalAlign=bottom;endArrow=block;labelBackgroundColor=none;fontFamily=Verdana;fontSize=12;edgeStyle=elbowEdgeStyle;elbow=vertical;" edge="1" parent="1" target="7baba1c4bc27f4b0-13">
          <mxGeometry relative="1" as="geometry">
            <mxPoint x="848" y="465" as="sourcePoint" />
            <mxPoint x="635" y="529" as="targetPoint" />
            <Array as="points">
              <mxPoint x="749" y="465" />
              <mxPoint x="545" y="528" />
              <mxPoint x="875" y="528" />
            </Array>
          </mxGeometry>
        </mxCell>
        <mxCell id="K8AdZDfyRurilhgOISgo-23" value="return" style="html=1;verticalAlign=bottom;endArrow=open;dashed=1;endSize=8;labelBackgroundColor=none;fontFamily=Verdana;fontSize=12;exitX=-0.183;exitY=0.83;exitDx=0;exitDy=0;exitPerimeter=0;" edge="1" parent="1" source="7baba1c4bc27f4b0-19">
          <mxGeometry relative="1" as="geometry">
            <mxPoint x="711" y="536" as="targetPoint" />
            <mxPoint x="981.5" y="561" as="sourcePoint" />
          </mxGeometry>
        </mxCell>
        <mxCell id="K8AdZDfyRurilhgOISgo-28" value="return" style="html=1;verticalAlign=bottom;endArrow=open;dashed=1;endSize=8;labelBackgroundColor=none;fontFamily=Verdana;fontSize=12;" edge="1" parent="1">
          <mxGeometry relative="1" as="geometry">
            <mxPoint x="519" y="542" as="targetPoint" />
            <mxPoint x="700" y="542" as="sourcePoint" />
          </mxGeometry>
        </mxCell>
      </root>
    </mxGraphModel>
  </diagram>
</mxfile>
